<mxfile host="Electron" agent="Mozilla/5.0 (Macintosh; Intel Mac OS X 10_15_7) AppleWebKit/537.36 (KHTML, like Gecko) draw.io/26.0.9 Chrome/128.0.6613.186 Electron/32.2.5 Safari/537.36" version="26.0.9">
  <diagram name="Page-1" id="WvCnCqAWnMIpbijHtHZL">
    <mxGraphModel dx="1304" dy="825" grid="1" gridSize="10" guides="1" tooltips="1" connect="1" arrows="1" fold="1" page="1" pageScale="1" pageWidth="900" pageHeight="550" math="0" shadow="0" adaptiveColors="none">
      <root>
        <mxCell id="0" />
        <mxCell id="1" parent="0" />
        <mxCell id="gqzV20gzdIuS-wF16u76-38" value="" style="group" vertex="1" connectable="0" parent="1">
          <mxGeometry x="40" y="20" width="840" height="500" as="geometry" />
        </mxCell>
        <mxCell id="aZz8Aj8nYfByZGTupD_b-3" value="" style="rounded=1;whiteSpace=wrap;html=1;container=0;arcSize=6;movable=1;resizable=1;rotatable=1;deletable=1;editable=1;locked=0;connectable=1;" parent="gqzV20gzdIuS-wF16u76-38" vertex="1">
          <mxGeometry width="840" height="500" as="geometry" />
        </mxCell>
        <mxCell id="aZz8Aj8nYfByZGTupD_b-5" value="&lt;b&gt;&lt;font style=&quot;font-size: 12px;&quot;&gt;User-Profile Management Flow&lt;/font&gt;&lt;/b&gt;" style="text;html=1;align=center;verticalAlign=middle;whiteSpace=wrap;rounded=0;fontSize=8;container=0;movable=1;resizable=1;rotatable=1;deletable=1;editable=1;locked=0;connectable=1;" parent="gqzV20gzdIuS-wF16u76-38" vertex="1">
          <mxGeometry width="839.9999999999997" height="46.732522796352576" as="geometry" />
        </mxCell>
        <mxCell id="aZz8Aj8nYfByZGTupD_b-4" value="" style="endArrow=none;html=1;rounded=0;exitX=0;exitY=0.25;exitDx=0;exitDy=0;entryX=1;entryY=0.25;entryDx=0;entryDy=0;movable=1;resizable=1;rotatable=1;deletable=1;editable=1;locked=0;connectable=1;" parent="gqzV20gzdIuS-wF16u76-38" edge="1">
          <mxGeometry width="50" height="50" relative="1" as="geometry">
            <mxPoint y="41.670022796352534" as="sourcePoint" />
            <mxPoint x="839.9999999999999" y="41.670022796352534" as="targetPoint" />
          </mxGeometry>
        </mxCell>
        <mxCell id="aZz8Aj8nYfByZGTupD_b-11" value="Web / Mobile Client" style="rounded=1;whiteSpace=wrap;html=1;dashed=1;container=0;movable=1;resizable=1;rotatable=1;deletable=1;editable=1;locked=0;connectable=1;" parent="1" vertex="1">
          <mxGeometry x="50" y="247.3191489361702" width="80" height="61.27659574468085" as="geometry" />
        </mxCell>
        <mxCell id="aZz8Aj8nYfByZGTupD_b-44" value="" style="endArrow=classic;startArrow=classic;html=1;rounded=0;exitX=1;exitY=0.75;exitDx=0;exitDy=0;entryX=0;entryY=0.25;entryDx=0;entryDy=0;movable=1;resizable=1;rotatable=1;deletable=1;editable=1;locked=0;connectable=1;" parent="1" source="aZz8Aj8nYfByZGTupD_b-28" target="aZz8Aj8nYfByZGTupD_b-35" edge="1">
          <mxGeometry width="50" height="50" relative="1" as="geometry">
            <mxPoint x="650" y="275.90489361702123" as="sourcePoint" />
            <mxPoint x="700" y="201.13285714285712" as="targetPoint" />
          </mxGeometry>
        </mxCell>
        <mxCell id="aZz8Aj8nYfByZGTupD_b-68" value="4" style="edgeLabel;html=1;align=center;verticalAlign=middle;resizable=1;points=[];container=0;movable=1;rotatable=1;deletable=1;editable=1;locked=0;connectable=1;" parent="aZz8Aj8nYfByZGTupD_b-44" vertex="1" connectable="0">
          <mxGeometry x="-0.0299" relative="1" as="geometry">
            <mxPoint as="offset" />
          </mxGeometry>
        </mxCell>
        <mxCell id="aZz8Aj8nYfByZGTupD_b-32" value="" style="rounded=1;whiteSpace=wrap;html=1;dashed=1;container=0;movable=1;resizable=1;rotatable=1;deletable=1;editable=1;locked=0;connectable=1;" parent="1" vertex="1">
          <mxGeometry x="740" y="81.49759878419452" width="120" height="89.72644376899694" as="geometry" />
        </mxCell>
        <mxCell id="aZz8Aj8nYfByZGTupD_b-33" value="" style="endArrow=none;html=1;rounded=0;exitX=0;exitY=0.25;exitDx=0;exitDy=0;entryX=1;entryY=0.25;entryDx=0;entryDy=0;dashed=1;movable=1;resizable=1;rotatable=1;deletable=1;editable=1;locked=0;connectable=1;" parent="1" source="aZz8Aj8nYfByZGTupD_b-32" target="aZz8Aj8nYfByZGTupD_b-32" edge="1">
          <mxGeometry width="50" height="50" relative="1" as="geometry">
            <mxPoint x="750" y="111.07741641337387" as="sourcePoint" />
            <mxPoint x="800.24" y="51.58878419452886" as="targetPoint" />
          </mxGeometry>
        </mxCell>
        <mxCell id="aZz8Aj8nYfByZGTupD_b-34" value="SMTP Server" style="text;html=1;align=center;verticalAlign=middle;whiteSpace=wrap;rounded=0;fontSize=8;container=0;movable=1;resizable=1;rotatable=1;deletable=1;editable=1;locked=0;connectable=1;" parent="1" vertex="1">
          <mxGeometry x="740" y="81.49759878419452" width="120" height="19.440729483282674" as="geometry" />
        </mxCell>
        <mxCell id="aZz8Aj8nYfByZGTupD_b-35" value="GMail" style="text;html=1;align=center;verticalAlign=middle;whiteSpace=wrap;rounded=0;container=0;movable=1;resizable=1;rotatable=1;deletable=1;editable=1;locked=0;connectable=1;" parent="1" vertex="1">
          <mxGeometry x="740" y="100.9383282674772" width="120" height="70.28571428571428" as="geometry" />
        </mxCell>
        <mxCell id="aZz8Aj8nYfByZGTupD_b-25" value="" style="rounded=1;whiteSpace=wrap;html=1;container=0;movable=1;resizable=1;rotatable=1;deletable=1;editable=1;locked=0;connectable=1;" parent="1" vertex="1">
          <mxGeometry x="520" y="80.00215805471124" width="190" height="89.72644376899694" as="geometry" />
        </mxCell>
        <mxCell id="aZz8Aj8nYfByZGTupD_b-26" value="" style="endArrow=none;html=1;rounded=0;exitX=0;exitY=0.25;exitDx=0;exitDy=0;entryX=1;entryY=0.25;entryDx=0;entryDy=0;movable=1;resizable=1;rotatable=1;deletable=1;editable=1;locked=0;connectable=1;" parent="1" source="aZz8Aj8nYfByZGTupD_b-25" target="aZz8Aj8nYfByZGTupD_b-25" edge="1">
          <mxGeometry width="50" height="50" relative="1" as="geometry">
            <mxPoint x="535.8333333333335" y="109.5819756838906" as="sourcePoint" />
            <mxPoint x="615.38" y="50.09334346504559" as="targetPoint" />
          </mxGeometry>
        </mxCell>
        <mxCell id="aZz8Aj8nYfByZGTupD_b-27" value="NotificationService" style="text;html=1;align=center;verticalAlign=middle;whiteSpace=wrap;rounded=0;fontSize=8;container=0;movable=1;resizable=1;rotatable=1;deletable=1;editable=1;locked=0;connectable=1;" parent="1" vertex="1">
          <mxGeometry x="520" y="80.00215805471124" width="190" height="19.440729483282674" as="geometry" />
        </mxCell>
        <mxCell id="aZz8Aj8nYfByZGTupD_b-28" value="consumePasswordResetRequestEvent()" style="text;html=1;align=center;verticalAlign=middle;whiteSpace=wrap;rounded=0;container=0;fontSize=10;movable=1;resizable=1;rotatable=1;deletable=1;editable=1;locked=0;connectable=1;" parent="1" vertex="1">
          <mxGeometry x="520" y="102.43376899696048" width="190" height="22.431610942249236" as="geometry" />
        </mxCell>
        <mxCell id="aZz8Aj8nYfByZGTupD_b-29" style="edgeStyle=orthogonalEdgeStyle;orthogonalLoop=1;jettySize=auto;html=1;exitX=0.5;exitY=1;exitDx=0;exitDy=0;rounded=1;curved=0;strokeWidth=0.5;shadow=0;flowAnimation=0;movable=1;resizable=1;rotatable=1;deletable=1;editable=1;locked=0;connectable=1;" parent="1" edge="1">
          <mxGeometry relative="1" as="geometry">
            <mxPoint x="614.8838888888889" y="128.60398176291793" as="sourcePoint" />
            <mxPoint x="614.8838888888889" y="143.55838905775073" as="targetPoint" />
          </mxGeometry>
        </mxCell>
        <mxCell id="aZz8Aj8nYfByZGTupD_b-30" value="send(EventType)" style="text;html=1;align=center;verticalAlign=middle;whiteSpace=wrap;rounded=0;container=0;fontSize=10;movable=1;resizable=1;rotatable=1;deletable=1;editable=1;locked=0;connectable=1;" parent="1" vertex="1">
          <mxGeometry x="520" y="139.81978723404254" width="190" height="22.431610942249236" as="geometry" />
        </mxCell>
        <mxCell id="aZz8Aj8nYfByZGTupD_b-43" value="" style="endArrow=classic;html=1;rounded=0;exitX=0;exitY=0.5;exitDx=0;exitDy=0;entryX=0.5;entryY=1;entryDx=0;entryDy=0;entryPerimeter=0;movable=1;resizable=1;rotatable=1;deletable=1;editable=1;locked=0;connectable=1;" parent="1" source="aZz8Aj8nYfByZGTupD_b-25" target="aZz8Aj8nYfByZGTupD_b-8" edge="1">
          <mxGeometry width="50" height="50" relative="1" as="geometry">
            <mxPoint x="480" y="170" as="sourcePoint" />
            <mxPoint x="436" y="207" as="targetPoint" />
          </mxGeometry>
        </mxCell>
        <mxCell id="aZz8Aj8nYfByZGTupD_b-67" value="3" style="edgeLabel;html=1;align=center;verticalAlign=middle;resizable=1;points=[];container=0;movable=1;rotatable=1;deletable=1;editable=1;locked=0;connectable=1;" parent="aZz8Aj8nYfByZGTupD_b-43" vertex="1" connectable="0">
          <mxGeometry x="-0.0793" y="-1" relative="1" as="geometry">
            <mxPoint as="offset" />
          </mxGeometry>
        </mxCell>
        <mxCell id="aZz8Aj8nYfByZGTupD_b-6" value="" style="endArrow=classic;html=1;rounded=0;exitX=1;exitY=1;exitDx=0;exitDy=0;entryX=0.5;entryY=0;entryDx=0;entryDy=0;entryPerimeter=0;movable=1;resizable=1;rotatable=1;deletable=1;editable=1;locked=0;connectable=1;" parent="1" source="gqzV20gzdIuS-wF16u76-6" target="aZz8Aj8nYfByZGTupD_b-8" edge="1">
          <mxGeometry width="50" height="50" relative="1" as="geometry">
            <mxPoint x="330" y="143" as="sourcePoint" />
            <mxPoint x="410" y="135.5" as="targetPoint" />
          </mxGeometry>
        </mxCell>
        <mxCell id="aZz8Aj8nYfByZGTupD_b-66" value="2" style="edgeLabel;html=1;align=center;verticalAlign=middle;resizable=1;points=[];container=0;movable=1;rotatable=1;deletable=1;editable=1;locked=0;connectable=1;" parent="aZz8Aj8nYfByZGTupD_b-6" vertex="1" connectable="0">
          <mxGeometry x="-0.1464" relative="1" as="geometry">
            <mxPoint as="offset" />
          </mxGeometry>
        </mxCell>
        <mxCell id="aZz8Aj8nYfByZGTupD_b-8" value="" style="shape=cylinder3;whiteSpace=wrap;html=1;boundedLbl=1;backgroundOutline=1;size=15;direction=north;container=0;movable=1;resizable=1;rotatable=1;deletable=1;editable=1;locked=0;connectable=1;" parent="1" vertex="1">
          <mxGeometry x="360" y="100" width="120" height="50" as="geometry" />
        </mxCell>
        <mxCell id="aZz8Aj8nYfByZGTupD_b-9" value="&lt;font style=&quot;font-size: 8px;&quot;&gt;Kafka topic&lt;/font&gt;" style="text;html=1;align=center;verticalAlign=middle;whiteSpace=wrap;rounded=0;container=0;movable=1;resizable=1;rotatable=1;deletable=1;editable=1;locked=0;connectable=1;" parent="1" vertex="1">
          <mxGeometry x="360" y="80" width="120" height="20" as="geometry" />
        </mxCell>
        <mxCell id="aZz8Aj8nYfByZGTupD_b-10" value="&lt;font style=&quot;font-size: 7px;&quot;&gt;user-service.password-reset-requested&lt;/font&gt;" style="text;html=1;align=center;verticalAlign=middle;whiteSpace=wrap;rounded=0;container=0;movable=1;resizable=1;rotatable=1;deletable=1;editable=1;locked=0;connectable=1;" parent="1" vertex="1">
          <mxGeometry x="390" y="115" width="90" height="10" as="geometry" />
        </mxCell>
        <mxCell id="gqzV20gzdIuS-wF16u76-27" value="" style="endArrow=classic;html=1;rounded=0;exitX=1;exitY=0.5;exitDx=0;exitDy=0;entryX=0;entryY=0;entryDx=0;entryDy=0;movable=1;resizable=1;rotatable=1;deletable=1;editable=1;locked=0;connectable=1;" edge="1" parent="1" source="aZz8Aj8nYfByZGTupD_b-11" target="gqzV20gzdIuS-wF16u76-5">
          <mxGeometry width="50" height="50" relative="1" as="geometry">
            <mxPoint x="100" y="220" as="sourcePoint" />
            <mxPoint x="150" y="170" as="targetPoint" />
          </mxGeometry>
        </mxCell>
        <mxCell id="gqzV20gzdIuS-wF16u76-32" value="1" style="edgeLabel;html=1;align=center;verticalAlign=middle;resizable=1;points=[];movable=1;rotatable=1;deletable=1;editable=1;locked=0;connectable=1;container=0;" vertex="1" connectable="0" parent="gqzV20gzdIuS-wF16u76-27">
          <mxGeometry x="0.4327" y="2" relative="1" as="geometry">
            <mxPoint as="offset" />
          </mxGeometry>
        </mxCell>
        <mxCell id="gqzV20gzdIuS-wF16u76-28" value="" style="endArrow=classic;html=1;rounded=0;exitX=1;exitY=0.5;exitDx=0;exitDy=0;entryX=0;entryY=0.25;entryDx=0;entryDy=0;movable=1;resizable=1;rotatable=1;deletable=1;editable=1;locked=0;connectable=1;" edge="1" parent="1" source="aZz8Aj8nYfByZGTupD_b-11" target="aZz8Aj8nYfByZGTupD_b-73">
          <mxGeometry width="50" height="50" relative="1" as="geometry">
            <mxPoint x="100" y="410" as="sourcePoint" />
            <mxPoint x="150" y="360" as="targetPoint" />
          </mxGeometry>
        </mxCell>
        <mxCell id="gqzV20gzdIuS-wF16u76-33" value="5" style="edgeLabel;html=1;align=center;verticalAlign=middle;resizable=1;points=[];movable=1;rotatable=1;deletable=1;editable=1;locked=0;connectable=1;container=0;" vertex="1" connectable="0" parent="gqzV20gzdIuS-wF16u76-28">
          <mxGeometry x="0.3704" y="1" relative="1" as="geometry">
            <mxPoint as="offset" />
          </mxGeometry>
        </mxCell>
        <mxCell id="gqzV20gzdIuS-wF16u76-29" value="" style="endArrow=classic;html=1;rounded=0;exitX=1;exitY=0.5;exitDx=0;exitDy=0;entryX=0;entryY=0;entryDx=0;entryDy=0;movable=1;resizable=1;rotatable=1;deletable=1;editable=1;locked=0;connectable=1;" edge="1" parent="1" source="aZz8Aj8nYfByZGTupD_b-11" target="gqzV20gzdIuS-wF16u76-12">
          <mxGeometry width="50" height="50" relative="1" as="geometry">
            <mxPoint x="100" y="420" as="sourcePoint" />
            <mxPoint x="150" y="370" as="targetPoint" />
          </mxGeometry>
        </mxCell>
        <mxCell id="gqzV20gzdIuS-wF16u76-34" value="6" style="edgeLabel;html=1;align=center;verticalAlign=middle;resizable=1;points=[];movable=1;rotatable=1;deletable=1;editable=1;locked=0;connectable=1;container=0;" vertex="1" connectable="0" parent="gqzV20gzdIuS-wF16u76-29">
          <mxGeometry x="0.0397" y="-1" relative="1" as="geometry">
            <mxPoint as="offset" />
          </mxGeometry>
        </mxCell>
        <mxCell id="gqzV20gzdIuS-wF16u76-30" value="" style="endArrow=classic;html=1;rounded=0;exitX=1;exitY=0.5;exitDx=0;exitDy=0;entryX=0;entryY=0;entryDx=0;entryDy=0;movable=1;resizable=1;rotatable=1;deletable=1;editable=1;locked=0;connectable=1;" edge="1" parent="1" source="aZz8Aj8nYfByZGTupD_b-11" target="gqzV20gzdIuS-wF16u76-18">
          <mxGeometry width="50" height="50" relative="1" as="geometry">
            <mxPoint x="110" y="400" as="sourcePoint" />
            <mxPoint x="160" y="350" as="targetPoint" />
          </mxGeometry>
        </mxCell>
        <mxCell id="gqzV20gzdIuS-wF16u76-35" value="7" style="edgeLabel;html=1;align=center;verticalAlign=middle;resizable=1;points=[];movable=1;rotatable=1;deletable=1;editable=1;locked=0;connectable=1;container=0;" vertex="1" connectable="0" parent="gqzV20gzdIuS-wF16u76-30">
          <mxGeometry x="0.2822" relative="1" as="geometry">
            <mxPoint as="offset" />
          </mxGeometry>
        </mxCell>
        <mxCell id="gqzV20gzdIuS-wF16u76-31" value="" style="endArrow=classic;html=1;rounded=0;exitX=1;exitY=0.5;exitDx=0;exitDy=0;entryX=0;entryY=1;entryDx=0;entryDy=0;movable=1;resizable=1;rotatable=1;deletable=1;editable=1;locked=0;connectable=1;" edge="1" parent="1" source="aZz8Aj8nYfByZGTupD_b-11" target="gqzV20gzdIuS-wF16u76-25">
          <mxGeometry width="50" height="50" relative="1" as="geometry">
            <mxPoint x="80" y="430" as="sourcePoint" />
            <mxPoint x="130" y="380" as="targetPoint" />
          </mxGeometry>
        </mxCell>
        <mxCell id="gqzV20gzdIuS-wF16u76-36" value="8" style="edgeLabel;html=1;align=center;verticalAlign=middle;resizable=1;points=[];movable=1;rotatable=1;deletable=1;editable=1;locked=0;connectable=1;container=0;" vertex="1" connectable="0" parent="gqzV20gzdIuS-wF16u76-31">
          <mxGeometry x="0.4221" relative="1" as="geometry">
            <mxPoint as="offset" />
          </mxGeometry>
        </mxCell>
        <mxCell id="gqzV20gzdIuS-wF16u76-9" value="" style="rounded=1;whiteSpace=wrap;html=1;container=0;movable=1;resizable=1;rotatable=1;deletable=1;editable=1;locked=0;connectable=1;" vertex="1" parent="1">
          <mxGeometry x="170" y="250" width="140" height="77" as="geometry" />
        </mxCell>
        <mxCell id="gqzV20gzdIuS-wF16u76-10" value="" style="endArrow=none;html=1;rounded=0;exitX=0;exitY=0.25;exitDx=0;exitDy=0;entryX=1;entryY=0.25;entryDx=0;entryDy=0;movable=1;resizable=1;rotatable=1;deletable=1;editable=1;locked=0;connectable=1;" edge="1" parent="1" source="gqzV20gzdIuS-wF16u76-9" target="gqzV20gzdIuS-wF16u76-9">
          <mxGeometry width="50" height="50" relative="1" as="geometry">
            <mxPoint x="180.00000000000006" y="269.78000000000003" as="sourcePoint" />
            <mxPoint x="230.24" y="230" as="targetPoint" />
          </mxGeometry>
        </mxCell>
        <mxCell id="gqzV20gzdIuS-wF16u76-11" value="UserService" style="text;html=1;align=center;verticalAlign=middle;whiteSpace=wrap;rounded=0;fontSize=8;container=0;movable=1;resizable=1;rotatable=1;deletable=1;editable=1;locked=0;connectable=1;" vertex="1" parent="1">
          <mxGeometry x="170" y="251" width="140" height="13" as="geometry" />
        </mxCell>
        <mxCell id="gqzV20gzdIuS-wF16u76-12" value="POST /users/{id}/&lt;div&gt;reset-password/confirm&lt;/div&gt;" style="text;html=1;align=center;verticalAlign=middle;whiteSpace=wrap;rounded=0;container=0;movable=1;resizable=1;rotatable=1;deletable=1;editable=1;locked=0;connectable=1;" vertex="1" parent="1">
          <mxGeometry x="170" y="287" width="140" height="39" as="geometry" />
        </mxCell>
        <mxCell id="gqzV20gzdIuS-wF16u76-13" value="&lt;i&gt;&lt;u&gt;&lt;font style=&quot;font-size: 11px;&quot;&gt;Confirm Password Reset&lt;/font&gt;&lt;/u&gt;&lt;/i&gt;" style="text;html=1;align=center;verticalAlign=middle;whiteSpace=wrap;rounded=0;fillColor=none;gradientColor=none;dashed=1;fontColor=#7D7D7D;container=0;movable=1;resizable=1;rotatable=1;deletable=1;editable=1;locked=0;connectable=1;" vertex="1" parent="1">
          <mxGeometry x="170" y="270" width="140" height="17" as="geometry" />
        </mxCell>
        <mxCell id="gqzV20gzdIuS-wF16u76-15" value="" style="rounded=1;whiteSpace=wrap;html=1;container=0;movable=1;resizable=1;rotatable=1;deletable=1;editable=1;locked=0;connectable=1;" vertex="1" parent="1">
          <mxGeometry x="170" y="340" width="140" height="77" as="geometry" />
        </mxCell>
        <mxCell id="gqzV20gzdIuS-wF16u76-16" value="" style="endArrow=none;html=1;rounded=0;exitX=0;exitY=0.25;exitDx=0;exitDy=0;entryX=1;entryY=0.25;entryDx=0;entryDy=0;movable=1;resizable=1;rotatable=1;deletable=1;editable=1;locked=0;connectable=1;" edge="1" parent="1" source="gqzV20gzdIuS-wF16u76-15" target="gqzV20gzdIuS-wF16u76-15">
          <mxGeometry width="50" height="50" relative="1" as="geometry">
            <mxPoint x="180.00000000000006" y="359.78000000000003" as="sourcePoint" />
            <mxPoint x="230.24" y="320" as="targetPoint" />
          </mxGeometry>
        </mxCell>
        <mxCell id="gqzV20gzdIuS-wF16u76-17" value="UserService" style="text;html=1;align=center;verticalAlign=middle;whiteSpace=wrap;rounded=0;fontSize=8;container=0;movable=1;resizable=1;rotatable=1;deletable=1;editable=1;locked=0;connectable=1;" vertex="1" parent="1">
          <mxGeometry x="170" y="341" width="140" height="13" as="geometry" />
        </mxCell>
        <mxCell id="gqzV20gzdIuS-wF16u76-18" value="POST /users/{id}/&lt;div&gt;change-password&lt;/div&gt;" style="text;html=1;align=center;verticalAlign=middle;whiteSpace=wrap;rounded=0;container=0;movable=1;resizable=1;rotatable=1;deletable=1;editable=1;locked=0;connectable=1;" vertex="1" parent="1">
          <mxGeometry x="170" y="377" width="140" height="39" as="geometry" />
        </mxCell>
        <mxCell id="gqzV20gzdIuS-wF16u76-19" value="&lt;i&gt;&lt;u&gt;&lt;font style=&quot;font-size: 11px;&quot;&gt;Change Password&lt;/font&gt;&lt;/u&gt;&lt;/i&gt;" style="text;html=1;align=center;verticalAlign=middle;whiteSpace=wrap;rounded=0;fillColor=none;gradientColor=none;dashed=1;fontColor=#7D7D7D;container=0;movable=1;resizable=1;rotatable=1;deletable=1;editable=1;locked=0;connectable=1;" vertex="1" parent="1">
          <mxGeometry x="170" y="360" width="140" height="17" as="geometry" />
        </mxCell>
        <mxCell id="gqzV20gzdIuS-wF16u76-21" value="" style="rounded=1;whiteSpace=wrap;html=1;container=0;movable=1;resizable=1;rotatable=1;deletable=1;editable=1;locked=0;connectable=1;" vertex="1" parent="1">
          <mxGeometry x="170" y="430" width="140" height="77" as="geometry" />
        </mxCell>
        <mxCell id="gqzV20gzdIuS-wF16u76-22" value="" style="endArrow=none;html=1;rounded=0;exitX=0;exitY=0.25;exitDx=0;exitDy=0;entryX=1;entryY=0.25;entryDx=0;entryDy=0;movable=1;resizable=1;rotatable=1;deletable=1;editable=1;locked=0;connectable=1;" edge="1" parent="1" source="gqzV20gzdIuS-wF16u76-21" target="gqzV20gzdIuS-wF16u76-21">
          <mxGeometry width="50" height="50" relative="1" as="geometry">
            <mxPoint x="180.00000000000006" y="449.78000000000003" as="sourcePoint" />
            <mxPoint x="230.24" y="410" as="targetPoint" />
          </mxGeometry>
        </mxCell>
        <mxCell id="gqzV20gzdIuS-wF16u76-23" value="UserService" style="text;html=1;align=center;verticalAlign=middle;whiteSpace=wrap;rounded=0;fontSize=8;container=0;movable=1;resizable=1;rotatable=1;deletable=1;editable=1;locked=0;connectable=1;" vertex="1" parent="1">
          <mxGeometry x="170" y="431" width="140" height="13" as="geometry" />
        </mxCell>
        <mxCell id="gqzV20gzdIuS-wF16u76-24" value="POST /users/{id}/&lt;div&gt;shipping-address&lt;/div&gt;" style="text;html=1;align=center;verticalAlign=middle;whiteSpace=wrap;rounded=0;container=0;movable=1;resizable=1;rotatable=1;deletable=1;editable=1;locked=0;connectable=1;" vertex="1" parent="1">
          <mxGeometry x="170" y="467" width="140" height="39" as="geometry" />
        </mxCell>
        <mxCell id="gqzV20gzdIuS-wF16u76-25" value="&lt;i&gt;&lt;u&gt;&lt;font style=&quot;font-size: 11px;&quot;&gt;Add Shipping Address&lt;/font&gt;&lt;/u&gt;&lt;/i&gt;" style="text;html=1;align=center;verticalAlign=middle;whiteSpace=wrap;rounded=0;fillColor=none;gradientColor=none;dashed=1;fontColor=#7D7D7D;container=0;movable=1;resizable=1;rotatable=1;deletable=1;editable=1;locked=0;connectable=1;" vertex="1" parent="1">
          <mxGeometry x="170" y="450" width="140" height="17" as="geometry" />
        </mxCell>
        <mxCell id="gqzV20gzdIuS-wF16u76-2" value="" style="rounded=1;whiteSpace=wrap;html=1;container=0;movable=1;resizable=1;rotatable=1;deletable=1;editable=1;locked=0;connectable=1;" vertex="1" parent="1">
          <mxGeometry x="170" y="90" width="140" height="77" as="geometry" />
        </mxCell>
        <mxCell id="gqzV20gzdIuS-wF16u76-3" value="" style="endArrow=none;html=1;rounded=0;exitX=0;exitY=0.25;exitDx=0;exitDy=0;entryX=1;entryY=0.25;entryDx=0;entryDy=0;movable=1;resizable=1;rotatable=1;deletable=1;editable=1;locked=0;connectable=1;" edge="1" parent="1" source="gqzV20gzdIuS-wF16u76-2" target="gqzV20gzdIuS-wF16u76-2">
          <mxGeometry width="50" height="50" relative="1" as="geometry">
            <mxPoint x="180.00000000000006" y="109.78000000000003" as="sourcePoint" />
            <mxPoint x="230.24" y="70" as="targetPoint" />
          </mxGeometry>
        </mxCell>
        <mxCell id="gqzV20gzdIuS-wF16u76-4" value="UserService" style="text;html=1;align=center;verticalAlign=middle;whiteSpace=wrap;rounded=0;fontSize=8;container=0;movable=1;resizable=1;rotatable=1;deletable=1;editable=1;locked=0;connectable=1;" vertex="1" parent="1">
          <mxGeometry x="170" y="91" width="140" height="13" as="geometry" />
        </mxCell>
        <mxCell id="gqzV20gzdIuS-wF16u76-5" value="POST /users/{id}/&lt;div&gt;reset-password/request&lt;/div&gt;" style="text;html=1;align=center;verticalAlign=middle;whiteSpace=wrap;rounded=0;container=0;movable=1;resizable=1;rotatable=1;deletable=1;editable=1;locked=0;connectable=1;" vertex="1" parent="1">
          <mxGeometry x="170" y="127" width="140" height="39" as="geometry" />
        </mxCell>
        <mxCell id="gqzV20gzdIuS-wF16u76-6" value="&lt;i&gt;&lt;u&gt;&lt;font style=&quot;font-size: 11px;&quot;&gt;Request Password Reset&lt;/font&gt;&lt;/u&gt;&lt;/i&gt;" style="text;html=1;align=center;verticalAlign=middle;whiteSpace=wrap;rounded=0;fillColor=none;gradientColor=none;dashed=1;fontColor=#7D7D7D;container=0;movable=1;resizable=1;rotatable=1;deletable=1;editable=1;locked=0;connectable=1;" vertex="1" parent="1">
          <mxGeometry x="170" y="110" width="140" height="17" as="geometry" />
        </mxCell>
        <mxCell id="aZz8Aj8nYfByZGTupD_b-71" value="" style="rounded=1;whiteSpace=wrap;html=1;container=0;movable=1;resizable=1;rotatable=1;deletable=1;editable=1;locked=0;connectable=1;" parent="1" vertex="1">
          <mxGeometry x="170" y="180" width="140" height="56.350000000000016" as="geometry" />
        </mxCell>
        <mxCell id="aZz8Aj8nYfByZGTupD_b-73" value="&lt;b&gt;Login Flow&lt;/b&gt;" style="text;html=1;align=center;verticalAlign=middle;whiteSpace=wrap;rounded=0;fontSize=8;container=0;movable=1;resizable=1;rotatable=1;deletable=1;editable=1;locked=0;connectable=1;" parent="1" vertex="1">
          <mxGeometry x="170" y="201.54000000000002" width="140" height="13.280000000000003" as="geometry" />
        </mxCell>
      </root>
    </mxGraphModel>
  </diagram>
</mxfile>
